<svg xmlns="http://www.w3.org/2000/svg" width="16" height="16" viewBox="0 0 16 16">
  <path d="M9.247 15h-5.4c-.655-.001-1.185-.531-1.186-1.186V2.186c.001-.654.53-1.184 1.184-1.186h5.4c2.257.008 4.085 1.836 4.093 4.093-.004 1.096-.451 2.145-1.239 2.907.788.763 1.235 1.811 1.24 2.907-.008 2.257-1.835 4.085-4.092 4.093zM5.035 9.186v3.441h4.212c.931-.028 1.673-.788 1.679-1.72-.005-.932-.747-1.693-1.679-1.721H5.035zm0-5.813v3.442h4.212c.932-.029 1.673-.789 1.679-1.721-.005-.932-.747-1.693-1.679-1.721H5.035z"/>
</svg>