<svg xmlns="http://www.w3.org/2000/svg" width="16" height="16" viewBox="0 0 16 16">
  <path d="M10.151 15h-4.3C3.175 14.993 1.008 12.826 1 10.15v-4.3C1.008 3.175 3.174 1.009 5.849 1h4.3c2.676.007 4.843 2.174 4.851 4.85v4.3c-.008 2.675-2.174 4.842-4.849 4.85zm-5.4-7.8c-.611 0-1.106.495-1.106 1.106 0 .288.113.565.314.772L5.9 11.009c.221.221.52.345.832.346.312.001.612-.124.832-.346l4.476-4.475c.432-.433.431-1.134-.002-1.565-.433-.432-1.134-.431-1.566.002L6.84 8.61c-.028.028-.066.044-.106.044-.04 0-.078-.016-.107-.044l-1.1-1.1c-.207-.2-.484-.312-.772-.31h-.004z" fill="white"/>
</svg>