<svg xmlns="http://www.w3.org/2000/svg" width="16" height="16" viewBox="0 0 16 16">
  <path d="M4.127 4.268 1.212 7.449c-.274.306-.29.791-.003 1.102l2.915 3.181c.733.774 1.907-.297 1.198-1.098L2.91 8.001l2.416-2.636c.708-.799-.464-1.872-1.199-1.097zM11.873 11.732l2.915-3.181c.275-.306.29-.791.003-1.101l-2.915-3.181c-.733-.774-1.907.297-1.198 1.098L13.09 8l-2.416 2.636c-.708.798.464 1.871 1.199 1.096zM10.188 4.326l-2.873 7.895c-.151.415-.61.629-1.025.478-.415-.151-.629-.61-.478-1.025l2.873-7.895c.151-.415.61-.629 1.025-.478.416.151.63.61.478 1.025z"/>
</svg>