<svg xmlns="http://www.w3.org/2000/svg" width="16" height="16" viewBox="0 0 16 16">
  <path d="M8 15c-3.864-.004-6.996-3.136-7-7 .004-3.864 3.136-6.996 7-7 1.858-.005 3.64.733 4.95 2.05C14.259 4.366 14.995 6.144 15 8c-.004 3.864-3.136 6.996-7 7zM4.805 7.864c-.104 0-.208.016-.307.048-.506.164-.795.694-.659 1.208.581 1.806 2.264 3.029 4.161 3.024h.011c1.9-.001 3.581-1.232 4.154-3.044.081-.251.059-.525-.063-.759-.12-.238-.331-.418-.585-.5a.98474.98474 0 0 0-.3-.047c-.436 0-.822.284-.953.7-.312.987-1.229 1.655-2.264 1.651h-.006c-1.03.002-1.942-.664-2.255-1.645-.153-.385-.525-.637-.939-.636h.005z"/>
</svg>