<svg xmlns="http://www.w3.org/2000/svg" width="16" height="16" viewBox="0 0 16 16">
  <path d="M13.542 13.859H2.458C1.653 13.857 1.001 13.205 1 12.4V3.6c.001-.805.653-1.457 1.458-1.459h11.084c.805.002 1.457.654 1.458 1.459v8.8c-.001.805-.653 1.457-1.458 1.459zM6.884 6.135c-.136 0-.268.052-.367.145l-3.154 4.179c-.16.15-.212.384-.131.588.081.205.279.34.5.338h8.6c.218.002.416-.129.5-.33.084-.202.036-.435-.121-.587l-1.8-2.235c-.1-.1-.236-.156-.377-.156-.141 0-.277.056-.377.156L9.79 8.6c-.1.101-.237.158-.38.158-.135 0-.265-.051-.364-.143L7.252 6.28c-.1-.094-.231-.146-.368-.145z"/>
</svg>