<svg xmlns="http://www.w3.org/2000/svg" width="16" height="16" viewBox="0 0 16 16">
  <path d="M2.291 13.708C.57 11.987.57 9.197 2.29 7.476l.001-.001.919-.92c.393-.393 1.03-.392 1.423.001.392.394.392 1.031-.001 1.424l-.92.921c-.884.987-.8 2.505.187 3.389.912.816 2.292.816 3.203-.001l.921-.92c.393-.392 1.029-.392 1.421.001.392.393.392 1.029-.001 1.421l-.92.919c-1.721 1.721-4.511 1.721-6.233 0l.001-.002zm3.577-3.577c-.393-.388-.396-1.021-.007-1.414l.007-.007 2.843-2.843c.392-.392 1.029-.392 1.421 0 .392.392.392 1.029 0 1.421l-2.843 2.843c-.389.392-1.022.395-1.414.007a.02336.02336 0 0 1-.007-.007zm5.499-.689c-.393-.393-.393-1.03 0-1.423l.92-.92c.884-.987.8-2.505-.187-3.389-.912-.816-2.292-.816-3.203.001l-.921.92c-.392.393-1.028.392-1.42 0-.392-.393-.392-1.029.001-1.421l.92-.919C9.198.57 11.988.57 13.71 2.291c1.721 1.721 1.721 4.511 0 6.233l-.919.92c-.393.393-1.03.393-1.423 0 0 0-.001 0-.001-.002z"/>
</svg>