<svg xmlns="http://www.w3.org/2000/svg" width="16" height="16" viewBox="0 0 16 16">
  <path d="M7.959 15.002h-.371l-.941-.118-.174-.054c-.1-.03-.191-.055-.284-.078-.218-.055-.432-.12-.636-.193-1.399-.502-2.596-1.445-3.412-2.687-.822-1.238-1.218-2.71-1.13-4.194.038-2.035 1.021-3.936 2.66-5.143A6.76533 6.76533 0 0 1 7.956.998c1.04 0 2.067.239 3 .7 2.302.996 3.852 3.197 4.014 5.7.022.235.033.471.031.707v.313l-.119.939-.051.2c-.03.128-.068.254-.111.378-.324 1.008-1.194 1.743-2.242 1.894-.116.013-.232.019-.348.019-.924.002-1.801-.403-2.4-1.106-.6.442-1.324.681-2.069.682h-.077c-1.154-.024-2.21-.651-2.785-1.651-.54-.919-.61-2.041-.189-3.02.423-.978 1.287-1.697 2.326-1.935.248-.057.502-.086.757-.086.625 0 1.237.173 1.77.5.17-.265.464-.426.779-.425h.043c.519.027.918.469.893.988-.013.25-.043.52-.074.805-.178.851-.129 1.733.142 2.559.113.259.307.475.554.613.099.051.208.078.319.078.171 0 .336-.063.463-.178.104-.122.176-.268.21-.424.396-1.537.033-3.17-.977-4.394-.938-1.135-2.335-1.792-3.808-1.79-.108 0-.218 0-.326.011-1.517.093-2.906.88-3.765 2.133-.866 1.248-1.107 2.826-.655 4.277.644 2.075 2.566 3.489 4.739 3.484.442 0 .882-.06 1.309-.176.097-.03.198-.045.3-.045.312-.001.607.141.8.386.264.328.298.785.085 1.148-.145.242-.384.413-.659.475-.393.095-.791.167-1.192.214-.226.023-.456.031-.684.031zm-.262-8.234c-.237 0-.469.064-.673.185-.538.322-.775.978-.567 1.57.186.524.681.874 1.237.876.065 0 .129-.004.193-.013.621-.092 1.091-.608 1.125-1.234.018-.349-.103-.691-.337-.95-.25-.275-.604-.432-.975-.432l-.003-.002z"/>
</svg>