<svg xmlns="http://www.w3.org/2000/svg" width="16" height="16" viewBox="0 0 16 16">
  <path d="M8.564 11.757c0-.592.48-1.073 1.073-1.073.919.046 1.802-.363 2.36-1.096-.072.005-.14.021-.214.021-1.163.02-2.247-.589-2.834-1.594-.588-1.004-.588-2.246 0-3.25.587-1.004 1.67-1.614 2.834-1.594.854-.001 1.673.338 2.276.942.603.605.942 1.424.941 2.278 0 3.554-1.809 6.434-5.364 6.437-.591 0-1.071-.479-1.072-1.071zm-7.507 0c0-.592.48-1.072 1.072-1.073.919.046 1.801-.364 2.359-1.096-.073.006-.14.022-.213.022-1.164.02-2.248-.589-2.835-1.594-.587-1.004-.587-2.246 0-3.25.587-1.005 1.671-1.614 2.835-1.594.854 0 1.672.339 2.276.943.603.605.942 1.424.942 2.278 0 3.554-1.809 6.435-5.365 6.435-.591 0-1.071-.479-1.071-1.071z"/>
</svg>