<svg xmlns="http://www.w3.org/2000/svg" width="16" height="16" viewBox="0 0 16 16">
  <path d="M13.419 8.827h-1.285c-.279.002-.518.201-.57.475-.198 1.744-1.664 3.067-3.42 3.086-1.931.08-3.561-1.422-3.641-3.353-.004-.093-.004-.186 0-.279.088-1.692 1.509-3.006 3.203-2.96V7.41c0 .198.161.359.359.358.08 0 .157-.027.22-.076l3.723-2.899c.214-.17.249-.481.08-.695a.50438.50438 0 0 0-.08-.08L8.291 1.08c-.154-.124-.38-.1-.505.054-.052.065-.08.145-.08.228v1.78c-3.068.09-5.537 2.553-5.634 5.622-.164 3.276 2.359 6.064 5.635 6.228 3.276.164 6.064-2.359 6.228-5.635.014-.278-.199-.514-.477-.528-.012-.001-.025-.001-.039-.002z"/>
</svg>