<svg xmlns="http://www.w3.org/2000/svg" width="16" height="16" viewBox="0 0 16 16">
  <path d="M12.951 12.95c-2.734 2.734-7.166 2.734-9.899 0s-2.734-7.166 0-9.899 7.166-2.734 9.899 0c2.73 2.735 2.73 7.163 0 9.899zM5.296 9.273c-.383.408-.362 1.049.046 1.431.39.365.996.365 1.386 0L8 9.431l1.273 1.273c.395.395 1.036.395 1.431 0s.395-1.036 0-1.431L9.431 8l1.273-1.273c.383-.408.362-1.049-.046-1.431-.39-.365-.996-.365-1.386 0L8 6.569 6.727 5.296c-.395-.395-1.036-.395-1.431 0s-.395 1.036 0 1.431L6.569 8 5.296 9.273z"/>
</svg>