<svg xmlns="http://www.w3.org/2000/svg" width="16" height="16" viewBox="0 0 16 16">
  <path d="M13.878 6.883H8c-1.092.081-2.047-.728-2.145-1.819C5.95 3.972 6.907 3.161 8 3.245c.745-.013 1.447.347 1.871.96.331.522 1.022.676 1.544.345.522-.331.676-1.022.345-1.544-.003-.004-.005-.008-.008-.012C10.923 1.734 9.509.983 8 1.003 5.671.919 3.711 2.733 3.615 5.061c0 .637.164 1.264.478 1.819h-1.97c-.618 0-1.119.502-1.119 1.12 0 .618.501 1.119 1.119 1.119H8c1.092-.081 2.047.729 2.145 1.819-.094 1.094-1.051 1.907-2.145 1.823-.745.014-1.448-.346-1.872-.96-.329-.523-1.02-.681-1.544-.352-.523.329-.681 1.02-.352 1.544l.015.024c.832 1.256 2.246 2.002 3.752 1.98 2.329.084 4.289-1.73 4.385-4.058 0-.637-.164-1.264-.478-1.819h1.97c.618 0 1.119-.502 1.119-1.12 0-.618-.501-1.119-1.119-1.119v.002z"/>
</svg>