<svg xmlns="http://www.w3.org/2000/svg" width="16" height="16" viewBox="0 0 16 16">
  <path d="M2.014 15.002c-.269-.001-.526-.109-.715-.3-.191-.189-.299-.446-.3-.715v-.407c.008-.553.458-.998 1.011-1h11.978c.554.002 1.004.446 1.012 1v.409c-.002.558-.454 1.009-1.012 1.009l-11.974.004zm.732-9.047V2.202c.019-.652.553-1.171 1.205-1.17.653 0 1.187.519 1.206 1.171v3.749c0 1.508 1.223 2.731 2.731 2.731s2.731-1.223 2.731-2.731v-3.75c.001-.665.54-1.204 1.205-1.205.665 0 1.205.539 1.205 1.205v3.749c-.003 2.838-2.303 5.138-5.141 5.141-2.837-.001-5.138-2.299-5.142-5.137z"/>
</svg>